<?xml version="1.0" encoding="UTF-8"?>
<svg width="100px" height="100px" viewBox="0 0 100 100" version="1.1" xmlns="http://www.w3.org/2000/svg" xmlns:xlink="http://www.w3.org/1999/xlink">
    <title>logo</title>
    <g id="logo" stroke="none" stroke-width="1" fill="none" fill-rule="evenodd">
        <path d="M21.3920455,67.4772727 C23.7556818,67.4772727 25.8295455,67.0284091 27.6136364,66.1306818 C29.3977273,65.2329545 30.7926136,63.9545455 31.7982955,62.2954545 C32.8039773,60.6363636 33.3068182,58.6818182 33.3068182,56.4318182 L33.3068182,56.4318182 L33.3068182,32.0909091 L26.0113636,32.0909091 L26.0113636,56.4318182 C26.0113636,57.5454545 25.8465909,58.4829545 25.5170455,59.2443182 C25.1875,60.0056818 24.7073864,60.5823864 24.0767045,60.9744318 C23.4460227,61.3664773 22.6761364,61.5625 21.7670455,61.5625 C20.9034091,61.5625 20.15625,61.3892045 19.5255682,61.0426136 C18.8948864,60.6960227 18.4005682,60.1960227 18.0426136,59.5426136 C17.6846591,58.8892045 17.4943182,58.1022727 17.4715909,57.1818182 L17.4715909,57.1818182 L10.1248085,57.1818182 C10.1136364,59.5 10.6079545,61.4232955 11.6079545,62.9517045 C12.6079545,64.4801136 13.9630682,65.6164773 15.6732955,66.3607955 C17.3835227,67.1051136 19.2897727,67.4772727 21.3920455,67.4772727 Z M47.2265376,67.4772727 C49.590174,67.4772727 51.6640376,67.0284091 53.4481286,66.1306818 C55.2322195,65.2329545 56.6271058,63.9545455 57.6327876,62.2954545 C58.6384695,60.6363636 59.1413104,58.6818182 59.1413104,56.4318182 L59.1413104,56.4318182 L59.1413104,32.0909091 L51.8458558,32.0909091 L51.8458558,56.4318182 C51.8458558,57.5454545 51.6810831,58.4829545 51.3515376,59.2443182 C51.0219922,60.0056818 50.5418786,60.5823864 49.9111967,60.9744318 C49.2805149,61.3664773 48.5106286,61.5625 47.6015376,61.5625 C46.7379013,61.5625 45.9907422,61.3892045 45.3600604,61.0426136 C44.7293786,60.6960227 44.2350604,60.1960227 43.8771058,59.5426136 C43.5191513,58.8892045 43.3288104,58.1022727 43.3060831,57.1818182 L43.3060831,57.1818182 L35.9593007,57.1818182 C35.9481286,59.5 36.4424467,61.4232955 37.4424467,62.9517045 C38.4424467,64.4801136 39.7975604,65.6164773 41.5077876,66.3607955 C43.2180149,67.1051136 45.1242649,67.4772727 47.2265376,67.4772727 Z M76.6405753,67.4943182 C79.4814844,67.4943182 81.9104616,67.0653409 83.9275071,66.2073864 C85.9445526,65.3494318 87.4900071,64.1392045 88.5638707,62.5767045 C89.6377344,61.0142045 90.180348,59.1647727 90.1917116,57.0284091 C90.180348,55.5738636 89.9161435,54.2840909 89.399098,53.1590909 C88.8820526,52.0340909 88.1576207,51.0568182 87.2258026,50.2272727 C86.2939844,49.3977273 85.1917116,48.6988636 83.9189844,48.1306818 C82.6462571,47.5625 81.2485298,47.1079545 79.7258026,46.7670455 L79.7258026,46.7670455 L76.5894389,46.0170455 C75.8280753,45.8465909 75.1121662,45.6392045 74.4417116,45.3948864 C73.7712571,45.1505682 73.180348,44.8607955 72.6689844,44.5255682 C72.1576207,44.1903409 71.7570526,43.7897727 71.4672798,43.3238636 C71.1775071,42.8579545 71.0439844,42.3125 71.0667116,41.6875 C71.0667116,40.9375 71.2854616,40.2670455 71.7229616,39.6761364 C72.1604616,39.0852273 72.7939844,38.6221591 73.6235298,38.2869318 C74.4530753,37.9517045 75.4701207,37.7840909 76.6746662,37.7840909 C78.4473935,37.7840909 79.8508026,38.1647727 80.8848935,38.9261364 C81.9189844,39.6875 82.5042116,40.7556818 82.6405753,42.1306818 L82.6405753,42.1306818 L89.7144389,42.1306818 C89.680348,40.0511364 89.1235298,38.2215909 88.0439844,36.6420455 C86.9644389,35.0625 85.4559162,33.8295455 83.5184162,32.9431818 C81.5809162,32.0568182 79.3167116,31.6136364 76.7258026,31.6136364 C74.180348,31.6136364 71.9076207,32.0568182 69.9076207,32.9431818 C67.9076207,33.8295455 66.336598,35.0625 65.1945526,36.6420455 C64.0525071,38.2215909 63.4871662,40.0681818 63.4985298,42.1818182 C63.4871662,44.7613636 64.3337571,46.8125 66.0383026,48.3352273 C67.742848,49.8579545 70.0667116,50.9772727 73.0098935,51.6931818 L73.0098935,51.6931818 L76.8110298,52.6477273 C78.0837571,52.9545455 79.1604616,53.2954545 80.0411435,53.6704545 C80.9218253,54.0454545 81.5922798,54.5 82.0525071,55.0340909 C82.5127344,55.5681818 82.742848,56.2272727 82.742848,57.0113636 C82.742848,57.8522727 82.4871662,58.5965909 81.9758026,59.2443182 C81.4644389,59.8920455 80.7456889,60.3977273 79.8195526,60.7613636 C78.8934162,61.125 77.805348,61.3068182 76.555348,61.3068182 C75.2826207,61.3068182 74.1434162,61.1107955 73.1377344,60.71875 C72.1320526,60.3267045 71.3309162,59.7414773 70.7343253,58.9630682 C70.1377344,58.1846591 69.7996662,57.2102273 69.7201207,56.0397727 L69.7201207,56.0397727 L62.5780753,56.0397727 C62.6348935,58.5511364 63.2456889,60.65625 64.4104616,62.3551136 C65.5752344,64.0539773 67.2002344,65.3352273 69.2854616,66.1988636 C71.3706889,67.0625 73.8223935,67.4943182 76.6405753,67.4943182 Z" id="JJS" fill="#11131B" fill-rule="nonzero"></path>
    </g>
</svg>
